<?xml version="1.0" encoding="utf-8"?>
<svg xmlns="http://www.w3.org/2000/svg" style="margin: auto; background: rgba(177, 88, 87, 0); display: block; shape-rendering: auto;" width="253" height="250" preserveAspectRatio="xMidYMid">
<style type="text/css">
  text {
    text-anchor: middle; font-size: 36px; opacity: 0;
  }
</style>
<g style="transform-origin:50% 50%;transform:scale(1)">
<g transform="translate(126.5,125)">
  <g transform="translate(0,0)"><g class="path" style="opacity: 1; transform-origin: -86.615px 1.82651px; animation: 1s linear -0.586667s infinite normal forwards running fade-a9a91be8-4e97-4136-bd2d-08a21a564e54;"><path d="M10.91-21.17L10.91-21.17L10.91-21.17Q7.49-21.17 5.78-19.30L5.78-19.30L5.78-19.30Q4.07-17.42 4.07-13.28L4.07-13.28L3.24-13.28L3.24-13.28Q3.24-21.92 10.69-21.92L10.69-21.92L10.69-21.92Q13.10-21.92 17.50-20.09L17.50-20.09L17.50-20.09Q21.89-18.25 24.19-18.25L24.19-18.25L24.19-17.42L24.19-17.42Q23.26-17.42 22.07-17.68L22.07-17.68L22.07-17.68Q21.82-17.60 21.19-16.87L21.19-16.87L21.19-16.87Q20.56-16.13 20.02-15.19L20.02-15.19L20.02-15.19Q18.50-12.46 17.35-8.21L17.35-8.21L21.24-8.21L21.17-7.56L17.17-7.56L17.17-7.56Q16.92-6.73 16.60-5.29L16.60-5.29L16.60-5.29Q15.12 1.15 13.48 3.91L13.48 3.91L13.48 3.91Q11.84 6.66 8.68 6.66L8.68 6.66L8.68 6.66Q6.77 6.66 6.05 6.23L6.05 6.23L6.41 5.47L6.41 5.47Q6.91 5.98 8.89 5.98L8.89 5.98L8.89 5.98Q9.14 5.98 9.72 5.90L9.72 5.90L12.28-5.18L12.28-5.18Q12.38-5.65 12.60-6.52L12.60-6.52L12.60-6.52Q12.82-7.38 12.85-7.56L12.85-7.56L8.93-7.56L9.00-8.21L13.00-8.21L13.00-8.21Q14.40-13.50 15.79-15.93L15.79-15.93L15.79-15.93Q17.17-18.36 19.04-18.61L19.04-18.61L19.04-18.61Q18.61-18.79 17.12-19.44L17.12-19.44L17.12-19.44Q15.62-20.09 14.98-20.34L14.98-20.34L14.98-20.34Q12.78-21.17 10.91-21.17" fill="#ffffff" stroke="none" stroke-width="none" transform="translate(-100.33001708984375,9.456512451171875)" style="fill: rgb(255, 255, 255);"></path></g><g class="path" style="opacity: 1; transform-origin: -56.73px 0.0265121px; animation: 1s linear -0.513333s infinite normal forwards running fade-a9a91be8-4e97-4136-bd2d-08a21a564e54;"><path d="M37.22-4.90L37.22-4.90L37.22-4.90Q37.22 0.50 40.72 2.23L40.72 2.23L40.72 2.23Q41.58 2.34 43.00 2.34L43.00 2.34L43.00 2.34Q44.42 2.34 46.01 1.80L46.01 1.80L46.01 1.80Q47.59 1.26 48.46 0.47L48.46 0.47L48.46 0.47Q50.29-1.22 50.76-2.45L50.76-2.45L50.94-2.99L51.66-2.70L51.66-2.70Q51.41-1.87 50.69-0.79L50.69-0.79L50.69-0.79Q49.97 0.29 49.05 1.04L49.05 1.04L49.05 1.04Q48.13 1.80 46.39 2.43L46.39 2.43L46.39 2.43Q44.64 3.06 42.52 3.06L42.52 3.06L42.52 3.06Q37.98 3.06 35.48 0.43L35.48 0.43L35.48 0.43Q32.98-2.20 32.98-6.98L32.98-6.98L32.98-6.98Q32.98-13.50 37.19-17.71L37.19-17.71L37.19-17.71Q41.40-21.92 48.24-21.92L48.24-21.92L48.24-21.92Q51.41-21.92 52.81-20.79L52.81-20.79L52.81-20.79Q54.22-19.66 54.22-17.24L54.22-17.24L54.22-17.24Q54.22-15.62 52.63-13.25L52.63-13.25L52.63-13.25Q51.19-10.94 51.19-9.65L51.19-9.65L50.40-9.65L50.40-9.65Q50.40-10.37 50.69-11.20L50.69-11.20L50.69-11.20Q50.98-12.02 51.19-12.38L51.19-12.38L51.19-12.38Q51.41-12.74 51.98-13.68L51.98-13.68L51.98-13.68Q53.39-15.80 53.39-17.17L53.39-17.17L53.39-17.17Q53.39-20.05 51.01-20.81L51.01-20.81L51.01-20.81Q49.90-21.17 48.67-21.17L48.67-21.17L48.67-21.17Q47.45-21.17 46.08-21.02L46.08-21.02L46.08-21.02Q44.82-20.63 43.69-20.00L43.69-20.00L43.69-20.00Q42.55-19.37 41.33-18.09L41.33-18.09L41.33-18.09Q40.10-16.81 39.24-15.12L39.24-15.12L39.24-15.12Q38.38-13.43 37.80-10.78L37.80-10.78L37.80-10.78Q37.22-8.14 37.22-4.90" fill="#ffffff" stroke="none" stroke-width="none" transform="translate(-100.33001708984375,9.456512451171875)" style="fill: rgb(255, 255, 255);"></path></g><g class="path" style="opacity: 1; transform-origin: -37.585px 2.61651px; animation: 1s linear -0.44s infinite normal forwards running fade-a9a91be8-4e97-4136-bd2d-08a21a564e54;"><path d="M67.68 0.32L67.68 0.32L67.68 0.32Q64.51 0.32 64.22-2.45L64.22-2.45L64.22-2.45Q62.64 0.32 60.23 0.32L60.23 0.32L60.23 0.32Q57.82 0.32 56.39-1.13L56.39-1.13L56.39-1.13Q54.97-2.59 54.97-5.22L54.97-5.22L54.97-5.22Q54.97-9.32 56.99-11.66L56.99-11.66L56.99-11.66Q59.00-14.00 62.21-14.00L62.21-14.00L62.21-14.00Q64.84-14.00 65.70-11.52L65.70-11.52L65.70-11.52Q65.88-12.60 66.10-13.68L66.10-13.68L66.10-13.68Q68.76-13.68 70.06-13.90L70.06-13.90L70.52-14.00L68.04-0.40L68.04-0.40Q69.12-0.50 69.84-1.40L69.84-1.40L70.38-0.97L70.38-0.97Q69.30 0.32 67.68 0.32zM59.04-3.38L59.04-3.38Q59.04-1.76 59.45-1.13L59.45-1.13L59.45-1.13Q59.87-0.50 60.73-0.50L60.73-0.50L60.73-0.50Q61.60-0.50 62.50-1.44L62.50-1.44L62.50-1.44Q63.68-2.66 64.40-4.54L64.40-4.54L64.40-4.54Q64.51-5.00 64.82-6.79L64.82-6.79L64.82-6.79Q65.12-8.57 65.34-9.72L65.34-9.72L65.34-9.72Q65.23-11.09 64.58-12.10L64.58-12.10L64.58-12.10Q63.94-13.10 62.96-13.10L62.96-13.10L62.96-13.10Q61.20-13.10 60.12-9.95L60.12-9.95L60.12-9.95Q59.04-6.80 59.04-3.38L59.04-3.38" fill="#ffffff" stroke="none" stroke-width="none" transform="translate(-100.33001708984375,9.456512451171875)" style="fill: rgb(255, 255, 255);"></path></g><g class="path" style="opacity: 1; transform-origin: -19.745px 2.61651px; animation: 1s linear -0.366667s infinite normal forwards running fade-a9a91be8-4e97-4136-bd2d-08a21a564e54;"><path d="M86.33-0.40L86.33-0.40L86.33-0.40Q87.19-0.40 88.13-1.40L88.13-1.40L88.67-0.97L88.67-0.97Q88.42-0.47 87.55-0.07L87.55-0.07L87.55-0.07Q86.69 0.32 85.64 0.32L85.64 0.32L85.64 0.32Q82.37 0.32 82.37-2.63L82.37-2.63L82.37-2.63Q82.37-3.89 83.02-7.13L83.02-7.13L83.02-7.13Q83.66-10.37 83.66-11.38L83.66-11.38L83.66-11.38Q83.66-12.92 82.19-12.92L82.19-12.92L82.19-12.92Q81-12.92 79.90-11.38L79.90-11.38L79.90-11.38Q78.80-9.83 78.08-7.13L78.08-7.13L76.86-0.40L76.86-0.40Q77.98-0.50 78.70-1.40L78.70-1.40L79.24-0.97L79.24-0.97Q78.16 0.32 76.54 0.32L76.54 0.32L76.54 0.32Q74.92 0.32 74.00-0.50L74.00-0.50L74.00-0.50Q73.08-1.33 73.08-2.66L73.08-2.66L73.08-2.66Q73.08-3.17 73.66-6.62L73.66-6.62L74.84-13.28L74.84-13.28Q73.76-13.18 73.04-12.28L73.04-12.28L72.50-12.71L72.50-12.71Q73.58-14.00 75.22-14.00L75.22-14.00L75.22-14.00Q76.86-14.00 77.76-13.18L77.76-13.18L77.76-13.18Q78.66-12.35 78.66-10.84L78.66-10.84L78.66-10.62L78.66-10.62Q80.14-14.00 83.27-14.00L83.27-14.00L83.27-14.00Q85.39-14.00 86.58-12.80L86.58-12.80L86.58-12.80Q87.77-11.59 87.77-9.47L87.77-9.47L87.77-9.47Q87.77-8.35 87.08-5.17L87.08-5.17L87.08-5.17Q86.40-1.98 86.33-0.40" fill="#ffffff" stroke="none" stroke-width="none" transform="translate(-100.33001708984375,9.456512451171875)" style="fill: rgb(255, 255, 255);"></path></g><g class="path" style="opacity: 1; transform-origin: 14.995px -0.318487px; animation: 1s linear -0.293333s infinite normal forwards running fade-a9a91be8-4e97-4136-bd2d-08a21a564e54;"><path d="M127.44-1.87L127.44-1.87Q125.75 0.11 122.89 1.30L122.89 1.30L122.89 1.30Q120.02 2.48 117.02 2.48L117.02 2.48L117.02 2.48Q114.01 2.48 111.92 1.91L111.92 1.91L111.92 1.91Q109.44 3.67 106.63 3.67L106.63 3.67L106.63 2.99L106.63 2.99Q108.04 2.95 108.67 2.61L108.67 2.61L108.67 2.61Q109.30 2.27 109.76 1.15L109.76 1.15L109.76 1.15Q107.89 0.32 106.49-0.95L106.49-0.95L106.49-0.95Q105.08-2.23 104.60-3.02L104.60-3.02L104.60-3.02Q104.11-3.82 104.11-3.96L104.11-3.96L104.76-4.21L104.76-4.21Q104.76-4.07 105.21-3.35L105.21-3.35L105.21-3.35Q105.66-2.63 106.97-1.42L106.97-1.42L106.97-1.42Q108.29-0.22 110.02 0.54L110.02 0.54L110.02 0.54Q110.52-0.72 110.84-2.59L110.84-2.59L114.05-21.10L114.05-21.10Q110.30-20.81 107.42-19.62L107.42-19.62L107.42-19.62Q109.87-17.03 109.87-13.43L109.87-13.43L109.87-13.43Q109.87-10.12 108.09-8.12L108.09-8.12L108.09-8.12Q106.31-6.12 104.15-6.12L104.15-6.12L104.15-6.12Q101.99-6.12 100.84-7.43L100.84-7.43L100.84-7.43Q99.68-8.75 99.68-10.55L99.68-10.55L99.68-10.55Q99.68-13.36 101.27-15.82L101.27-15.82L101.27-15.82Q102.85-18.29 106.16-19.87L106.16-19.87L106.16-19.87Q103.79-21.89 99.90-22.54L99.90-22.54L100.04-23.22L100.04-23.22Q104.40-22.43 106.85-20.16L106.85-20.16L106.85-20.16Q111.20-21.92 117.49-21.92L117.49-21.92L117.49-21.92Q123.77-21.92 127.37-19.06L127.37-19.06L127.37-19.06Q130.97-16.20 130.97-11.09L130.97-11.09L130.97-11.09Q130.97-5.87 127.44-1.87L127.44-1.87zM116.42 1.84L116.42 1.84L116.42 1.84Q119.84 1.84 122.58 0.70L122.58 0.70L122.58 0.70Q125.32-0.43 126.94-2.30L126.94-2.30L126.94-2.30Q130.28-6.12 130.28-10.85L130.28-10.85L130.28-10.85Q130.28-15.59 127.19-18.25L127.19-18.25L127.19-18.25Q124.09-20.92 118.55-21.20L118.55-21.20L118.55-21.20Q116.78-9.29 115.78-4.07L115.78-4.07L115.78-4.07Q115.13-0.76 112.61 1.40L112.61 1.40L112.61 1.40Q114.52 1.84 116.42 1.84zM100.37-10.55L100.37-10.55L100.37-10.55Q100.37-9.07 101.32-7.94L101.32-7.94L101.32-7.94Q102.28-6.80 104.17-6.80L104.17-6.80L104.17-6.80Q106.06-6.80 107.50-8.46L107.50-8.46L107.50-8.46Q108.94-10.12 109.15-12.67L109.15-12.67L109.15-12.67Q109.19-13.14 109.19-13.61L109.19-13.61L109.19-13.61Q109.19-16.85 106.70-19.33L106.70-19.33L106.70-19.33Q103.46-17.86 101.92-15.53L101.92-15.53L101.92-15.53Q100.37-13.21 100.37-10.55" fill="#ffffff" stroke="none" stroke-width="none" transform="translate(-100.33001708984375,9.456512451171875)" style="fill: rgb(255, 255, 255);"></path></g><g class="path" style="opacity: 1; transform-origin: 39.385px 2.45651px; animation: 1s linear -0.22s infinite normal forwards running fade-a9a91be8-4e97-4136-bd2d-08a21a564e54;"><path d="M133.70-12.28L133.16-12.71L133.16-12.71Q134.24-14.00 135.88-14.00L135.88-14.00L135.88-14.00Q137.52-14.00 138.42-13.18L138.42-13.18L138.42-13.18Q139.32-12.35 139.32-10.84L139.32-10.84L139.32-10.62L139.32-10.62Q140.94-14.00 143.53-14.00L143.53-14.00L143.53-14.00Q146.30-14.00 146.30-11.12L146.30-11.12L146.30-11.12Q146.30-9.94 145.51-8.60L145.51-8.60L145.51-8.60Q144.72-7.27 143.93-6.07L143.93-6.07L143.93-6.07Q143.14-4.86 143.14-3.92L143.14-3.92L142.27-3.92L142.27-3.92Q142.27-5.26 143.82-7.52L143.82-7.52L143.82-7.52Q145.37-9.79 145.37-11.03L145.37-11.03L145.37-11.03Q145.37-12.28 144.88-12.73L144.88-12.73L144.88-12.73Q144.40-13.18 143.44-13.18L143.44-13.18L143.44-13.18Q142.49-13.18 141.57-12.35L141.57-12.35L141.57-12.35Q140.65-11.52 140.04-10.26L140.04-10.26L140.04-10.26Q139.07-8.39 138.74-7.20L138.74-7.20L138.74-7.16L137.45 0L133.13 0L135.50-13.28L135.50-13.28Q134.42-13.18 133.70-12.28L133.70-12.28" fill="#ffffff" stroke="none" stroke-width="none" transform="translate(-100.33001708984375,9.456512451171875)" style="fill: rgb(255, 255, 255);"></path></g><g class="path" style="opacity: 1; transform-origin: 52.92px 2.61651px; animation: 1s linear -0.146667s infinite normal forwards running fade-a9a91be8-4e97-4136-bd2d-08a21a564e54;"><path d="M154.84-14.00L154.84-14.00L154.84-14.00Q159.41-14.00 159.41-10.37L159.41-10.37L159.41-10.37Q159.41-8.10 157.27-6.93L157.27-6.93L157.27-6.93Q155.12-5.76 151.16-5.72L151.16-5.72L151.16-5.72Q151.09-4.43 151.09-3.67L151.09-3.67L151.09-3.67Q151.09-2.05 151.83-1.28L151.83-1.28L151.83-1.28Q152.57-0.50 153.68-0.50L153.68-0.50L153.68-0.50Q154.80-0.50 155.72-0.94L155.72-0.94L155.72-0.94Q156.64-1.37 157.18-1.96L157.18-1.96L157.18-1.96Q157.72-2.56 158.11-3.20L158.11-3.20L158.11-3.20Q158.83-4.39 158.83-4.72L158.83-4.72L159.48-4.43L159.48-4.43Q159.37-3.85 158.83-2.90L158.83-2.90L158.83-2.90Q158.29-1.94 157.64-1.33L157.64-1.33L157.64-1.33Q157.00-0.72 155.74-0.20L155.74-0.20L155.74-0.20Q154.48 0.32 152.93 0.32L152.93 0.32L152.93 0.32Q150.01 0.32 148.52-1.06L148.52-1.06L148.52-1.06Q147.02-2.45 147.02-4.86L147.02-4.86L147.02-4.86Q147.02-9.14 149.15-11.57L149.15-11.57L149.15-11.57Q151.27-14.00 154.84-14.00zM158.51-10.37L158.51-10.37Q158.51-11.56 157.81-12.33L157.81-12.33L157.81-12.33Q157.10-13.10 155.72-13.10L155.72-13.10L155.72-13.10Q154.33-13.10 153.02-11.45L153.02-11.45L153.02-11.45Q151.70-9.79 151.27-6.55L151.27-6.55L151.27-6.55Q158.51-6.59 158.51-10.37L158.51-10.37" fill="#ffffff" stroke="none" stroke-width="none" transform="translate(-100.33001708984375,9.456512451171875)" style="fill: rgb(255, 255, 255);"></path></g><g class="path" style="opacity: 1; transform-origin: 68.795px 2.61651px; animation: 1s linear -0.0733333s infinite normal forwards running fade-a9a91be8-4e97-4136-bd2d-08a21a564e54;"><path d="M174.06 0.32L174.06 0.32L174.06 0.32Q170.89 0.32 170.60-2.45L170.60-2.45L170.60-2.45Q169.02 0.32 166.61 0.32L166.61 0.32L166.61 0.32Q164.20 0.32 162.77-1.13L162.77-1.13L162.77-1.13Q161.35-2.59 161.35-5.22L161.35-5.22L161.35-5.22Q161.35-9.32 163.37-11.66L163.37-11.66L163.37-11.66Q165.38-14.00 168.59-14.00L168.59-14.00L168.59-14.00Q171.22-14.00 172.08-11.52L172.08-11.52L172.08-11.52Q172.26-12.60 172.48-13.68L172.48-13.68L172.48-13.68Q175.14-13.68 176.44-13.90L176.44-13.90L176.90-14.00L174.42-0.40L174.42-0.40Q175.50-0.50 176.22-1.40L176.22-1.40L176.76-0.97L176.76-0.97Q175.68 0.32 174.06 0.32zM165.42-3.38L165.42-3.38Q165.42-1.76 165.83-1.13L165.83-1.13L165.83-1.13Q166.25-0.50 167.11-0.50L167.11-0.50L167.11-0.50Q167.98-0.50 168.88-1.44L168.88-1.44L168.88-1.44Q170.06-2.66 170.78-4.54L170.78-4.54L170.78-4.54Q170.89-5.00 171.20-6.79L171.20-6.79L171.20-6.79Q171.50-8.57 171.72-9.72L171.72-9.72L171.72-9.72Q171.61-11.09 170.96-12.10L170.96-12.10L170.96-12.10Q170.32-13.10 169.34-13.10L169.34-13.10L169.34-13.10Q167.58-13.10 166.50-9.95L166.50-9.95L166.50-9.95Q165.42-6.80 165.42-3.38L165.42-3.38" fill="#ffffff" stroke="none" stroke-width="none" transform="translate(-100.33001708984375,9.456512451171875)" style="fill: rgb(255, 255, 255);"></path></g><g class="path" style="opacity: 1; transform-origin: 91.115px 2.61651px; animation: 1s linear 0s infinite normal forwards running fade-a9a91be8-4e97-4136-bd2d-08a21a564e54;"><path d="M192.49-0.40L192.49-0.40L192.49-0.40Q193.36-0.40 194.29-1.40L194.29-1.40L194.83-0.97L194.83-0.97Q194.58-0.47 193.72-0.07L193.72-0.07L193.72-0.07Q192.85 0.32 191.81 0.32L191.81 0.32L191.81 0.32Q188.53 0.32 188.53-2.63L188.53-2.63L188.53-2.63Q188.53-3.89 189.18-7.13L189.18-7.13L189.18-7.13Q189.83-10.37 189.83-11.38L189.83-11.38L189.83-11.38Q189.83-12.92 188.35-12.92L188.35-12.92L188.35-12.92Q186.12-12.92 184.61-7.20L184.61-7.20L183.31 0L178.99 0L181.37-13.28L181.37-13.28Q180.29-13.18 179.57-12.28L179.57-12.28L179.03-12.71L179.03-12.71Q180.11-14.00 181.75-14.00L181.75-14.00L181.75-14.00Q183.38-14.00 184.28-13.18L184.28-13.18L184.28-13.18Q185.18-12.35 185.18-10.84L185.18-10.84L185.18-10.73L185.18-10.73Q186.59-14.00 189.43-14.00L189.43-14.00L189.43-14.00Q191.45-14.00 192.62-12.91L192.62-12.91L192.62-12.91Q193.79-11.81 193.90-9.83L193.90-9.83L193.90-9.83Q194.58-11.81 195.62-12.91L195.62-12.91L195.62-12.91Q196.67-14.00 198.65-14.00L198.65-14.00L198.65-14.00Q200.63-14.00 201.82-12.80L201.82-12.80L201.82-12.80Q203.00-11.59 203.00-9.47L203.00-9.47L203.00-9.47Q203.00-8.35 202.32-5.17L202.32-5.17L202.32-5.17Q201.64-1.98 201.56-0.40L201.56-0.40L201.56-0.40Q202.43-0.40 203.36-1.40L203.36-1.40L203.90-0.97L203.90-0.97Q203.65-0.47 202.79-0.07L202.79-0.07L202.79-0.07Q201.92 0.32 200.88 0.32L200.88 0.32L200.88 0.32Q197.60 0.32 197.60-2.63L197.60-2.63L197.60-2.63Q197.60-3.89 198.25-7.13L198.25-7.13L198.25-7.13Q198.90-10.37 198.90-11.38L198.90-11.38L198.90-11.38Q198.90-12.92 197.42-12.92L197.42-12.92L197.42-12.92Q194.83-12.92 193.25-5.22L193.25-5.22L193.25-5.22Q192.56-1.94 192.49-0.40" fill="#ffffff" stroke="none" stroke-width="none" transform="translate(-100.33001708984375,9.456512451171875)" style="fill: rgb(255, 255, 255);"></path></g></g>
</g>
</g>
<style id="fade-a9a91be8-4e97-4136-bd2d-08a21a564e54" data-anikit="">@keyframes fade-a9a91be8-4e97-4136-bd2d-08a21a564e54
{
  0% {
    animation-timing-function: cubic-bezier(0.2057,0.573,0.3723,0.9184);
    opacity: 1;
  }
  100% {
    opacity: 0;
  }
}</style></svg>
